<?xml version="1.0" encoding="UTF-8"?>
<svg id="Capa_1" data-name="Capa 1" xmlns="http://www.w3.org/2000/svg" xmlns:xlink="http://www.w3.org/1999/xlink" viewBox="0 0 202.87 250.03">
  <defs>
    <style>
      .cls-1 {
        fill: none;
      }

      .cls-1, .cls-2 {
        stroke-width: 0px;
      }

      .cls-3 {
        clip-path: url(#clippath-1);
      }

      .cls-2 {
        fill: #fff;
      }

      .cls-4 {
        clip-path: url(#clippath);
      }
    </style>
    <clipPath id="clippath">
      <rect class="cls-1" width="202.87" height="250.03"/>
    </clipPath>
    <clipPath id="clippath-1">
      <rect class="cls-1" width="202.87" height="250.03"/>
    </clipPath>
  </defs>
  <g id="Ilustración_1" data-name="Ilustración 1">
    <g class="cls-4">
      <g class="cls-3">
        <path class="cls-2" d="m202.87,242.79c-1.18.63-2.43,1.1-3.73,1.4-2.34.7-5.14,1.64-8.87,2.57s-7.71,1.63-12.14,2.33c-4.56.67-9.17.98-13.78.94-12.6,0-22.64-3.5-29.88-10.27-7.24-7-10.74-15.18-10.74-24.75V68.4c0-4.55-.46-9.09-1.4-13.54-.83-4.22-2.58-8.2-5.13-11.67-2.44-3.56-5.73-6.45-9.57-8.41-4-2.1-9.1-3.27-15.4-3.27-11.44,0-19.61,3.74-24.52,11.44s-7.48,17.51-7.94,29.65v4.44h32.21v28.48h-32v142.15H23.35V105.52H0v-28.48h23.35v-10c0-21,5.83-37.35,17.74-49.26C53,5.87,69.8,0,91.98,0,103.65,0,113.69,1.4,122.33,4.43c8,2.45,15.35,6.68,21.48,12.38,5.68,5.27,10.01,11.84,12.61,19.14,2.87,7.85,4.3,16.15,4.21,24.51v136.57c-.04,2.29.28,4.57.93,6.77.66,2.37,1.77,4.59,3.27,6.54,2.86,4.26,7.67,6.8,12.8,6.77,2.12,0,4.23-.24,6.3-.7,2.34-.47,4.2-.93,6.31-1.4,1.86-.47,4.2-1.17,6.77-2.1l5.86,29.88Z"/>
      </g>
    </g>
  </g>
</svg>